PathFileType	4	(X/Y/Z)	C:\Users\WrightLab\Desktop\Jo\P5V29.trc
DataRate	CameraRate	NumFrames	NumMarkers	Units	OrigDataRate	OrigDataStartFrame	OrigNumFrames
100.00	100.00	       40	19	mm	100.00	1	       759
Frame#	Time	Headset_Front			Headset_Back			Headset_Left			Headset_Right			Left_Shoulder			Right_Shoulder			Sternum			C7			Left Elbow			Right Elbow			Left Wrist			Right Wrist			Left ASIS			Right ASIS			S2			Left Knee			Right Knee			Left Ankle			Right Ankle			
		X1	Y1	Z1	X2	Y2	Z2	X3	Y3	Z3	X4	Y4	Z4	X5	Y5	Z5	X6	Y6	Z6	X7	Y7	Z7	X8	Y8	Z8	X9	Y9	Z9	X10	Y10	Z10	X11	Y11	Z11	X12	Y12	Z12	X13	Y13	Z13	X14	Y14	Z14	X15	Y15	Z15	X16	Y16	Z16	X17	Y17	Z17	X18	Y18	Z18	X19	Y19	Z19	

1	0.000																												-541.96692	1152.31628	-1401.38733	4.55095	953.07855	-1346.15063	-495.10986	1018.88190	-1208.20435				-368.76514	924.74359	-1280.16760				-63.49186	475.39508	-1355.83521	-441.67874	469.06851	-1329.77002							
2	0.010																												-542.16522	1152.35840	-1401.33069	4.53832	953.12537	-1346.15881	-495.53033	1018.79297	-1207.39014				-368.75281	924.75226	-1280.11060				-63.67955	475.05597	-1356.94067	-441.82660	469.08664	-1329.08606							
3	0.020																												-542.60144	1152.03967	-1400.39380	4.52953	953.17389	-1346.17529	-495.44333	1018.87653	-1207.01733				-368.76395	924.71729	-1280.15759				-64.33965	475.57617	-1356.07813	-441.81332	469.18103	-1328.70105							
4	0.030																												-543.15417	1152.15479	-1400.02197	4.51736	953.19836	-1346.14270	-495.41925	1018.89899	-1206.46582				-368.74524	924.73395	-1280.07166				-64.65475	474.98077	-1357.92932	-441.81400	469.18353	-1328.70142							
5	0.040																												-543.41602	1152.18323	-1399.68774	4.22592	953.64685	-1346.82141	-495.40491	1018.91736	-1206.15601				-369.29669	925.21301	-1278.01477				-64.92517	474.47595	-1359.51868	-441.60925	468.57449	-1328.19507							
6	0.050																												-543.80640	1151.24573	-1397.22522	4.20507	953.70685	-1346.86511	-495.26370	1019.12115	-1205.59497				-369.32275	925.16730	-1278.13074				-65.18063	474.00516	-1361.02087	-441.66504	468.50436	-1327.94446							
7	0.060																												-543.97662	1151.31787	-1397.15686	4.19068	953.73499	-1346.84534	-495.30084	1018.97681	-1205.39954				-369.69882	925.10046	-1276.52771				-65.94735	473.72861	-1360.69348	-441.76364	468.25571	-1327.65332							
8	0.070																												-544.13397	1151.36707	-1396.97034	4.13924	953.75653	-1346.90771	-495.41666	1018.91626	-1204.65259				-369.70630	925.06897	-1276.55798				-66.61582	473.45935	-1360.25122	-441.54471	468.41003	-1327.37427							
9	0.080																												-544.31299	1151.43518	-1396.77014	4.11419	953.76141	-1346.81116	-496.46564	1018.34552	-1204.08044				-369.72708	925.04315	-1276.65210				-66.77596	473.16345	-1361.19128	-441.81998	468.59741	-1326.25696							
10	0.090																												-544.50995	1151.55859	-1396.49438	4.07872	953.81860	-1346.79260	-496.49271	1018.34167	-1203.52332				-369.74927	924.99896	-1276.75000				-66.93244	472.88666	-1362.11145	-441.53897	467.78851	-1324.89160							
11	0.100																												-544.67004	1151.65833	-1396.27979	4.02245	953.79645	-1346.81714	-496.34497	1018.57562	-1202.62244				-370.15997	925.75470	-1275.00049				-67.01848	472.68820	-1362.61169	-441.54413	467.54794	-1324.78955							
12	0.110																												-545.39001	1151.82373	-1395.49390	3.96279	953.84711	-1346.90320	-496.53067	1018.33502	-1202.27417				-370.17606	925.72028	-1275.07092				-67.50356	473.52139	-1361.66980	-441.47150	467.54422	-1324.17883							
13	0.120																												-545.55139	1151.93213	-1395.13306	3.92132	953.86908	-1346.78699	-496.54358	1018.29602	-1201.95508				-370.20428	925.67377	-1275.19690				-67.57180	473.37750	-1362.06799	-441.40155	467.48761	-1323.38660							
14	0.130																												-545.90167	1151.62720	-1393.73523	3.93281	953.90973	-1346.68188	-496.50787	1019.21484	-1202.56140				-370.23453	925.63110	-1275.33313				-67.63257	473.26294	-1362.42432	-441.33307	467.58813	-1323.01782							
15	0.140																												-546.30267	1151.43188	-1392.58337	3.89219	953.94470	-1346.60950	-496.13284	1018.89545	-1202.35706				-370.34381	925.48242	-1275.82605				-67.64637	473.21997	-1362.50305	-441.36716	467.62982	-1322.30750							
16	0.150																												-546.53668	1151.56384	-1392.39600	3.84345	953.94714	-1346.59155	-496.32541	1019.37903	-1201.73755				-370.73410	926.29541	-1274.81335				-67.68587	473.11377	-1362.73071	-441.64938	467.41946	-1321.85620							
17	0.160																												-546.77179	1151.69653	-1392.10474	3.79998	953.95563	-1346.54443	-496.36005	1019.35724	-1201.75146				-370.78290	926.18542	-1275.02600				-67.68484	473.12436	-1362.72571	-441.67352	467.58740	-1321.38062							
18	0.170																												-547.15662	1152.19727	-1392.31201	3.76247	953.99811	-1346.43835	-496.60547	1019.56256	-1200.93384				-370.81363	926.15509	-1275.16663				-67.66196	473.15775	-1362.59033	-442.70715	467.89011	-1320.64856							
19	0.180																												-547.37811	1152.32751	-1392.06519	3.74017	954.02118	-1346.37744	-496.95358	1019.82056	-1200.38794				-370.89783	926.04742	-1275.54724				-67.65347	473.17407	-1362.54065	-442.95459	467.68927	-1320.76343							
20	0.190																												-547.56177	1152.47021	-1391.76172	3.69033	954.02972	-1346.37732	-496.85352	1019.93182	-1200.11743				-370.96222	925.94861	-1275.83569				-67.61755	473.25351	-1362.33154	-443.02661	467.66052	-1320.76794							
21	0.200																												-548.05811	1152.55029	-1390.81519	3.68382	954.01697	-1346.21777	-496.57297	1020.19611	-1199.49805				-371.00473	925.87476	-1276.02454				-67.53741	473.38254	-1361.85889	-443.06897	467.63547	-1320.76965							
22	0.210																												-548.22253	1152.69080	-1390.43811	3.64113	954.08490	-1346.14832	-498.33212	1020.66040	-1199.05688				-371.05487	925.81604	-1276.25232				-67.69633	473.00742	-1360.84412	-443.23019	467.48755	-1320.60938							
23	0.220																												-548.64935	1153.03149	-1390.17371	3.61396	954.10480	-1346.06836	-498.15353	1020.83594	-1198.48474				-371.51288	925.83929	-1274.53259				-67.43500	473.61542	-1361.26355	-444.11243	467.62433	-1320.14832							
24	0.230																												-548.90228	1153.54016	-1390.52026	3.55758	954.07764	-1346.04065	-498.20407	1020.85626	-1198.50879				-371.57687	925.71692	-1274.81494				-67.37492	473.70868	-1360.90881	-444.81183	467.54465	-1320.16406							
25	0.240																												-549.08984	1153.67603	-1390.20300	3.13734	954.05865	-1345.78320	-498.02576	1021.03705	-1197.93933				-371.65564	925.58826	-1275.16614				-67.28537	473.89313	-1360.38574	-445.98453	467.89294	-1319.51440							
26	0.250																												-549.62994	1153.27307	-1388.42139	3.12682	954.10315	-1345.60803	-498.55823	1021.22766	-1197.89685				-371.76132	925.46191	-1275.64539				-67.20164	474.03033	-1359.89221	-446.24414	467.78195	-1318.80872							
27	0.260																												-549.80786	1153.39734	-1388.11987	3.04915	954.09424	-1345.58289	-498.36093	1021.41882	-1197.42859				-371.86359	925.25861	-1276.09521				-67.15292	474.12012	-1359.60632	-446.83572	468.03897	-1318.86816							
28	0.270																												-550.32599	1153.62012	-1387.72644	3.00545	954.08191	-1345.44897	-497.18018	1021.71704	-1196.63306				-371.91681	925.17029	-1276.33228				-67.00498	474.38095	-1358.73682	-447.01605	467.76877	-1319.09912							
29	0.280																												-550.47687	1153.74768	-1387.36035	2.93962	954.08594	-1345.44324	-497.90051	1021.75439	-1196.30969				-372.10739	924.89532	-1277.18823				-66.96284	474.47379	-1358.49133	-447.48492	467.51801	-1318.87952							
30	0.290																												-550.79706	1153.52576	-1385.95508	2.91040	954.06976	-1345.25977	-499.57230	1022.35162	-1196.26697				-372.89139	924.94568	-1274.06921				-66.93785	474.51212	-1358.34375	-447.73523	466.85178	-1318.68567							
31	0.300																												-550.91486	1153.66504	-1385.58606	2.83278	954.07373	-1345.20300	-497.70642	1021.35291	-1195.83545				-373.08124	924.67914	-1274.92236				-66.85769	474.66144	-1357.87366	-447.50928	467.05792	-1318.09338							
32	0.310																												-551.02466	1153.79285	-1385.22656	2.77312	954.04968	-1345.12390	-499.81363	1022.69482	-1195.29480				-373.04587	924.67926	-1274.75513				-66.38361	473.78369	-1358.87512	-447.52408	467.04947	-1318.09863							
33	0.320																												-551.15009	1153.94971	-1384.74707	2.66950	954.02240	-1345.07666	-499.90057	1022.55884	-1194.44971				-373.07706	924.64594	-1274.89697				-66.25063	474.04251	-1358.09607	-448.62216	467.46384	-1317.40417							
34	0.330																												-551.44843	1154.50269	-1384.88721	2.64940	954.03522	-1344.93457	-498.27826	1022.36884	-1194.35242				-373.16348	924.58502	-1275.29565				-66.20366	474.13235	-1357.82068	-448.28720	467.60782	-1317.60645							
35	0.340																												-551.56647	1154.63403	-1384.53003	2.57470	954.00946	-1344.90991	-500.62662	1022.17993	-1192.57422				-373.10358	924.62720	-1275.01941				-66.12364	474.27994	-1357.35095	-448.55392	467.50394	-1316.96497							
36	0.350																												-551.72247	1154.72925	-1384.16296	2.55243	953.95007	-1344.75317	-499.66602	1022.82690	-1193.80994				-373.17725	924.49951	-1275.34631				-66.01675	474.47174	-1356.72266	-448.60385	467.43814	-1316.65137							
37	0.360																												-551.87189	1154.86560	-1383.82361	2.50670	953.92224	-1344.80164	-500.94321	1023.89001	-1193.20313				-373.19638	924.41949	-1275.42322				-65.90850	474.67929	-1356.08813	-448.45160	467.08966	-1316.11951							
38	0.370																												-552.34094	1154.95496	-1382.89478	2.48463	953.90704	-1344.61975	-501.29144	1024.23291	-1193.05786				-373.72321	925.30542	-1272.71362				-65.82978	474.85107	-1355.62927	-448.47397	467.08850	-1316.12854							
39	0.380																												-552.55316	1155.53479	-1383.23438	2.43077	953.83557	-1344.66931	-501.29337	1024.25000	-1193.05994				-373.77087	925.26984	-1272.93286				-65.76260	474.98611	-1355.23621	-448.49109	467.56320	-1316.14319							
40	0.390																												-552.64990	1155.68616	-1382.85596	2.38521	953.28406	-1343.69324	-501.18597	1024.34424	-1192.41943				-373.81772	925.19739	-1273.14209				-65.67575	475.14563	-1354.72620	-448.50128	467.56204	-1316.14734							
